HIERARCHY
ROOT Hips
{
	OFFSET -0.001795 -0.223333 0.028219
	CHANNELS 6 Xposition Yposition Zposition Zrotation Yrotation Xrotation 
	JOINT LeftUpLeg
	{
		OFFSET 0.069520 -0.091406 -0.006815
		CHANNELS 3 Zrotation Yrotation Xrotation
		JOINT LeftLeg
		{
			OFFSET 0.034277 -0.375199 -0.004496
			CHANNELS 3 Zrotation Yrotation Xrotation
			JOINT LeftFoot
			{
				OFFSET -0.013596 -0.397961 -0.043693
				CHANNELS 3 Zrotation Yrotation Xrotation
				JOINT LeftToe
				{
					OFFSET 0.026358 -0.055791 0.119288
					CHANNELS 3 Zrotation Yrotation Xrotation
					End Site
					{
						OFFSET 0.000000 0.000000 0.000000
					}
				}
			}
		}
	}
	JOINT RightUpLeg
	{
		OFFSET -0.067670 -0.090522 -0.004320
		CHANNELS 3 Zrotation Yrotation Xrotation
		JOINT RightLeg
		{
			OFFSET -0.038290 -0.382569 -0.008850
			CHANNELS 3 Zrotation Yrotation Xrotation
			JOINT RightFoot
			{
				OFFSET 0.015774 -0.398415 -0.042312
				CHANNELS 3 Zrotation Yrotation Xrotation
				JOINT RightToe
				{
					OFFSET -0.025372 -0.048144 0.123348
					CHANNELS 3 Zrotation Yrotation Xrotation
					End Site
					{
						OFFSET 0.000000 0.000000 0.000000
					}
				}
			}
		}
	}
	JOINT Spine
	{
		OFFSET -0.002533 0.108963 -0.026696
		CHANNELS 3 Zrotation Yrotation Xrotation
		JOINT Spine1
		{
			OFFSET 0.005487 0.135180 0.001092
			CHANNELS 3 Zrotation Yrotation Xrotation
			JOINT Spine2
			{
				OFFSET 0.001457 0.052922 0.025425
				CHANNELS 3 Zrotation Yrotation Xrotation
				JOINT Neck
				{
					OFFSET -0.002778 0.213870 -0.042857
					CHANNELS 3 Zrotation Yrotation Xrotation
					JOINT Head
					{
						OFFSET 0.005152 0.064970 0.051349
						CHANNELS 3 Zrotation Yrotation Xrotation
						End Site
						{
							OFFSET 0.000000 0.000000 0.000000
						}
					}
				}
				JOINT LeftShoulder
				{
					OFFSET 0.078845 0.121749 -0.034090
					CHANNELS 3 Zrotation Yrotation Xrotation
					JOINT LeftArm
					{
						OFFSET 0.090977 0.030469 -0.008868
						CHANNELS 3 Zrotation Yrotation Xrotation
						JOINT LeftForeArm
						{
							OFFSET 0.259612 -0.012772 -0.027456
							CHANNELS 3 Zrotation Yrotation Xrotation
							JOINT LeftHand
							{
								OFFSET 0.249234 0.008986 -0.001171
								CHANNELS 3 Zrotation Yrotation Xrotation
								End Site
								{
									OFFSET 0.000000 0.000000 0.000000
								}
							}
						}
					}
				}
				JOINT RightShoulder
				{
					OFFSET -0.081759 0.118833 -0.038615
					CHANNELS 3 Zrotation Yrotation Xrotation
					JOINT RightArm
					{
						OFFSET -0.096012 0.032551 -0.009143
						CHANNELS 3 Zrotation Yrotation Xrotation
						JOINT RightForeArm
						{
							OFFSET -0.253742 -0.013329 -0.021401
							CHANNELS 3 Zrotation Yrotation Xrotation
							JOINT RightHand
							{
								OFFSET -0.255298 0.007772 -0.005559
								CHANNELS 3 Zrotation Yrotation Xrotation
								End Site
								{
									OFFSET 0.000000 0.000000 0.000000
								}
							}
						}
					}
				}
			}
		}
	}
}
MOTION
Frames: 18
Frame Time: 0.050000
0.000000 0.956339 0.000000 -1.698577 -8.737429 7.144844 -2.498651 -1.248607 -12.134137 1.615473 -0.330150 3.325100 3.078302 8.691514 12.702289 0.000000 0.000000 0.000000 5.065571 1.251428 -10.207665 -0.761824 0.419622 6.382998 0.573276 -1.079911 3.857258 0.000000 0.000000 0.000000 4.776440 -1.075493 12.655901 -5.069456 1.660355 -20.723566 -1.659881 7.754435 25.731787 12.027672 -6.308345 -19.522727 0.000000 0.000000 0.000000 -15.632403 -4.316797 0.965605 -61.395688 -3.195240 -8.129991 1.607076 -30.188847 1.204712 0.000000 0.000000 0.000000 23.597943 -5.163866 -3.967787 63.589580 0.173329 -8.565182 -2.461969 36.971735 1.643763 0.000000 0.000000 0.000000 
0.000304 0.955779 0.003949 -2.108998 -8.404371 7.933483 -1.443228 -1.094764 -11.459594 0.477846 -0.093308 1.114824 2.849137 8.328345 12.516532 0.000000 0.000000 0.000000 5.536313 1.374106 -10.879915 -1.232790 0.489576 6.435175 0.809299 -0.686241 4.132368 0.000000 0.000000 0.000000 4.997011 -1.073857 11.876161 -4.804332 1.599112 -19.806329 -1.869240 8.106630 25.120405 12.746176 -6.506283 -20.301588 0.000000 0.000000 0.000000 -16.089041 -3.286021 0.259273 -60.037473 -2.142767 -8.422731 -0.658587 -32.652518 1.902770 0.000000 0.000000 0.000000 23.243664 -6.350518 -4.518446 64.439079 -0.826236 -9.082751 -1.695042 38.600183 2.061763 0.000000 0.000000 0.000000 
0.000695 0.955110 0.007522 -1.666456 -7.212904 7.984085 -1.739533 -1.137313 -11.568526 0.132215 -0.055284 1.338698 2.275066 7.476483 12.131913 0.000000 0.000000 0.000000 5.272503 1.313222 -10.574157 -1.136530 0.480097 6.579230 -0.177840 -2.263434 3.019090 0.000000 0.000000 0.000000 5.421840 -1.106381 11.347134 -5.266340 1.765330 -19.317429 -2.418307 6.936633 24.530722 11.427724 -5.779712 -19.711991 0.000000 0.000000 0.000000 -14.838637 -2.089836 -0.206192 -61.289739 -2.216798 -8.485853 0.018864 -34.042913 1.832697 0.000000 0.000000 0.000000 23.334726 -6.236547 -4.607867 63.579662 -2.055715 -9.554881 -0.272087 40.451442 2.581796 0.000000 0.000000 0.000000 
0.000862 0.955685 0.010935 -1.666694 -7.264096 8.321504 -1.876260 -1.168169 -11.801764 0.314374 -0.083892 1.490719 2.296821 7.519261 12.220877 0.000000 0.000000 0.000000 5.341858 1.389499 -11.055945 -1.126656 0.478992 6.580071 -0.332049 -3.127277 3.942437 0.000000 0.000000 0.000000 5.503133 -1.132555 11.500113 -5.236450 1.718361 -21.350198 -2.363813 8.958455 26.627540 11.878939 -5.566430 -21.259480 0.000000 0.000000 0.000000 -14.839422 -3.080549 -0.028862 -60.532804 -2.480238 -8.552391 -0.593410 -36.051747 2.031019 0.000000 0.000000 0.000000 23.998373 -7.280627 -4.697754 63.115877 -1.928467 -9.700356 0.147092 41.788755 3.210328 0.000000 0.000000 0.000000 
0.000951 0.955383 0.013668 -1.436133 -6.430025 8.181365 -2.372955 -1.221089 -11.863045 0.751229 -0.161404 2.044515 1.934393 6.964802 11.893173 0.000000 0.000000 0.000000 5.118641 1.287201 -10.453823 -1.316602 0.481206 6.221032 -0.418467 -3.102125 3.608147 0.000000 0.000000 0.000000 5.190801 -1.126680 11.873860 -4.966605 1.664467 -21.656776 -2.200646 9.101179 27.224958 11.564232 -5.117235 -22.108157 0.000000 0.000000 0.000000 -14.736883 -2.863023 -0.252451 -60.351008 -2.715137 -8.500062 -1.037489 -39.239791 2.350739 0.000000 0.000000 0.000000 24.232122 -7.231639 -4.467501 61.653537 -0.889676 -9.090081 0.768045 42.348768 3.583627 0.000000 0.000000 0.000000 
0.000883 0.955032 0.015744 -1.126304 -5.663332 8.224442 -2.664435 -1.277186 -12.133345 0.716226 -0.174053 2.532953 1.583381 6.433475 11.667696 0.000000 0.000000 0.000000 4.941207 1.287846 -10.507318 -1.359885 0.497152 6.418552 -0.896964 -4.072824 3.424634 0.000000 0.000000 0.000000 5.092165 -1.163488 12.410446 -5.362131 1.778787 -21.802930 -1.918565 9.443993 27.252393 11.427358 -4.939254 -21.921288 0.000000 0.000000 0.000000 -15.246977 -3.228618 -0.304238 -59.202028 -2.855725 -8.266067 -1.524499 -42.027584 2.593420 0.000000 0.000000 0.000000 24.212457 -6.926078 -4.016488 60.795935 -0.034962 -8.589726 -0.191794 42.741159 3.358809 0.000000 0.000000 0.000000 
0.000763 0.954526 0.017372 -1.009441 -5.266542 8.461870 -2.898582 -1.369098 -12.818643 0.942282 -0.237694 3.414688 1.468256 6.230171 11.394704 0.000000 0.000000 0.000000 4.633782 1.231462 -10.242853 -1.172075 0.429173 5.781814 -0.841639 -3.824016 3.215890 0.000000 0.000000 0.000000 5.012170 -1.197734 12.905635 -5.588507 1.844785 -21.692581 -1.707507 9.713502 26.897243 11.865893 -5.054929 -22.303299 0.000000 0.000000 0.000000 -15.974359 -3.527072 -0.367308 -58.316255 -2.785148 -8.101778 -1.414857 -43.395858 2.532899 0.000000 0.000000 0.000000 24.602369 -6.774835 -3.802141 59.768588 0.936864 -8.006994 -0.835851 43.173760 3.201921 0.000000 0.000000 0.000000 
0.000523 0.954050 0.018926 -0.997889 -4.894039 8.394898 -2.700970 -1.377581 -13.039902 0.610707 -0.211819 4.073005 1.349726 6.005632 11.085450 0.000000 0.000000 0.000000 4.597268 1.200926 -10.035628 -1.063399 0.406170 5.675752 -0.977850 -4.104804 3.180216 0.000000 0.000000 0.000000 5.024335 -1.257886 13.620575 -5.662288 1.857263 -22.267406 -1.465249 10.000336 27.141626 12.065294 -4.941259 -23.163887 0.000000 0.000000 0.000000 -17.088457 -4.486732 -0.113471 -57.047955 -2.891164 -7.846038 -0.564618 -43.484466 2.111086 0.000000 0.000000 0.000000 25.301951 -5.961890 -3.144278 58.734529 2.555920 -7.249141 -3.047117 42.954492 2.419170 0.000000 0.000000 0.000000 
0.000039 0.953931 0.020820 -0.976439 -4.980201 8.476909 -2.664722 -1.400937 -13.310915 0.536571 -0.217454 4.617493 1.431116 6.107395 10.977133 0.000000 0.000000 0.000000 4.501891 1.158673 -9.786854 -0.896851 0.359842 5.272441 -0.944601 -4.026046 3.171490 0.000000 0.000000 0.000000 5.114459 -1.283681 13.784781 -5.962027 1.931715 -22.163475 -1.472321 9.956255 26.926312 12.447576 -5.026240 -23.965643 0.000000 0.000000 0.000000 -17.575373 -5.052964 0.149496 -56.691017 -3.331758 -7.549984 0.676472 -41.624987 1.544464 0.000000 0.000000 0.000000 25.797153 -5.158604 -2.687435 57.933912 3.734319 -6.652251 -4.384473 43.007993 1.883644 0.000000 0.000000 0.000000 
-0.000644 0.953744 0.023460 -0.935676 -5.108382 8.530778 -2.516889 -1.380753 -13.256837 0.234963 -0.172704 4.729949 1.509214 6.197438 10.865566 0.000000 0.000000 0.000000 4.441950 1.102230 -9.429008 -0.844550 0.337142 4.988031 -0.890008 -3.747568 2.849552 0.000000 0.000000 0.000000 5.077313 -1.276252 13.785382 -5.959939 1.923339 -22.389963 -1.575509 10.008973 26.984706 12.620332 -4.948479 -24.883531 0.000000 0.000000 0.000000 -17.876227 -5.789220 0.521159 -56.483489 -3.757133 -7.320391 2.489417 -39.790384 0.827208 0.000000 0.000000 0.000000 26.153764 -4.545116 -2.304459 57.457354 4.328977 -6.383992 -5.048209 43.128963 1.630155 0.000000 0.000000 0.000000 
-0.001615 0.953386 0.026940 -0.983646 -5.266156 8.314889 -2.332093 -1.341804 -13.037536 0.037962 -0.152803 5.198329 1.643183 6.339670 10.577393 0.000000 0.000000 0.000000 4.665122 1.033096 -8.895322 -0.944088 0.335579 4.707073 -0.981497 -3.991871 2.904201 0.000000 0.000000 0.000000 5.022970 -1.237968 13.453912 -5.975008 1.930876 -22.178063 -1.672868 9.711497 26.885074 12.696268 -4.980568 -25.224884 0.000000 0.000000 0.000000 -18.199033 -5.907339 0.653601 -56.578909 -3.870836 -7.265583 3.500645 -37.687422 0.482119 0.000000 0.000000 0.000000 26.068075 -4.236082 -2.234621 57.503559 4.348219 -6.346603 -4.740842 43.028993 1.672771 0.000000 0.000000 0.000000 
-0.002709 0.953109 0.030917 -0.958596 -5.207019 7.939465 -2.363220 -1.269428 -12.255810 0.097347 -0.158126 5.019230 1.637835 6.273527 10.302172 0.000000 0.000000 0.000000 4.556704 0.950642 -8.327701 -0.825575 0.311090 4.552585 -0.873331 -3.889525 3.225332 0.000000 0.000000 0.000000 4.859463 -1.177244 13.025841 -5.792045 1.896027 -21.933019 -2.004593 9.338469 26.745520 12.787745 -5.099288 -25.183549 0.000000 0.000000 0.000000 -17.933891 -5.976578 0.797115 -56.922730 -3.784215 -7.361364 4.207735 -36.001226 0.264459 0.000000 0.000000 0.000000 26.186406 -4.003766 -2.203459 57.567108 3.808507 -6.580159 -3.181256 42.491524 2.139483 0.000000 0.000000 0.000000 
-0.003727 0.952839 0.034630 -0.949407 -5.465374 7.528946 -2.294671 -1.199657 -11.604833 -0.026804 -0.139553 5.136986 1.790721 6.454098 10.067857 0.000000 0.000000 0.000000 4.580515 0.864173 -7.713167 -0.840353 0.308607 4.460965 -0.799504 -3.781076 3.336606 0.000000 0.000000 0.000000 4.745977 -1.123870 12.650733 -5.905149 1.922158 -22.044714 -1.930847 9.109274 27.064115 12.476197 -4.999729 -25.089690 0.000000 0.000000 0.000000 -17.812415 -5.941651 0.902935 -57.218942 -3.869685 -7.406879 4.867124 -34.602543 0.102037 0.000000 0.000000 0.000000 25.859149 -3.833121 -2.194988 58.586739 2.928835 -7.067342 -2.334890 41.718528 2.355855 0.000000 0.000000 0.000000 
-0.004478 0.952793 0.037503 -0.923243 -5.581741 7.274836 -2.326992 -1.157138 -11.145715 -0.000662 -0.143983 5.171208 1.857962 6.531188 9.951154 0.000000 0.000000 0.000000 4.499027 0.787008 -7.179448 -0.866072 0.314149 4.494712 -0.606353 -3.167463 2.997814 0.000000 0.000000 0.000000 4.528055 -1.058087 12.221938 -5.746537 1.886446 -21.887599 -2.069670 8.961626 27.175227 12.440729 -4.922745 -25.530044 0.000000 0.000000 0.000000 -17.482859 -5.744732 0.883453 -57.646472 -4.160747 -7.348283 5.719217 -33.329564 -0.124155 0.000000 0.000000 0.000000 25.883152 -3.954658 -2.348762 59.237557 2.155776 -7.481541 -1.205637 40.095561 2.583108 0.000000 0.000000 0.000000 
-0.004727 0.952800 0.039567 -0.888947 -5.543519 7.019421 -2.307676 -1.132341 -10.897327 -0.104508 -0.134049 5.456804 1.851167 6.503198 9.854310 0.000000 0.000000 0.000000 4.287244 0.765165 -7.034121 -0.747771 0.311985 4.745542 -0.413919 -2.841847 3.243485 0.000000 0.000000 0.000000 4.609122 -1.033728 11.767801 -5.845457 1.914535 -21.943899 -2.105401 8.922675 27.568247 12.450084 -4.901372 -25.758909 0.000000 0.000000 0.000000 -17.022779 -5.823335 0.981219 -57.969309 -4.413681 -7.329092 6.411557 -32.305752 -0.301036 0.000000 0.000000 0.000000 25.904348 -4.185623 -2.498595 59.755984 1.216423 -8.017111 -0.344173 38.824014 2.757177 0.000000 0.000000 0.000000 
-0.004540 0.952944 0.041075 -0.776402 -5.561481 6.917243 -2.431981 -1.128396 -10.759602 -0.147348 -0.129267 5.560203 1.847272 6.503420 9.887860 0.000000 0.000000 0.000000 3.963777 0.746536 -6.936892 -0.642119 0.313895 5.046823 -0.215808 -2.257002 3.008845 0.000000 0.000000 0.000000 4.482272 -0.970002 11.113911 -5.854064 1.921495 -21.736034 -2.168682 8.718433 27.712830 11.942798 -4.586678 -25.955096 0.000000 0.000000 0.000000 -16.757513 -5.667041 0.975027 -58.684310 -4.658977 -7.317596 8.020175 -31.311861 -0.697179 0.000000 0.000000 0.000000 25.684307 -4.253823 -2.596667 60.344443 0.390224 -8.468738 0.233727 37.915543 2.835767 0.000000 0.000000 0.000000 
-0.003936 0.952797 0.042351 -0.745048 -5.625687 6.678077 -2.499137 -1.081743 -10.245328 -0.196905 -0.113739 5.263006 1.868259 6.513619 9.801799 0.000000 0.000000 0.000000 3.813447 0.732148 -6.837107 -0.757103 0.347884 5.372900 0.013906 -1.733303 3.031913 0.000000 0.000000 0.000000 4.583309 -0.959980 10.859545 -6.111970 1.986923 -21.839028 -2.296931 8.492273 27.830689 11.646883 -4.470827 -25.870318 0.000000 0.000000 0.000000 -16.450070 -5.548258 1.006476 -59.080031 -4.786370 -7.326745 8.803607 -30.066506 -0.841786 0.000000 0.000000 0.000000 25.545636 -4.336735 -2.730211 60.726337 -0.572119 -8.976817 1.359508 37.234718 3.091624 0.000000 0.000000 0.000000 
-0.003191 0.952742 0.043266 -0.708941 -5.893724 6.498081 -2.662963 -1.057130 -9.894016 -0.122529 -0.120833 5.112179 1.991586 6.696112 9.788412 0.000000 0.000000 0.000000 3.631601 0.724419 -6.805294 -0.696223 0.354867 5.640355 0.135358 -1.483335 3.074359 0.000000 0.000000 0.000000 4.563773 -0.927153 10.506519 -6.163411 1.996260 -21.906088 -2.346537 8.602951 28.059589 11.266586 -4.378750 -25.211377 0.000000 0.000000 0.000000 -16.012976 -5.364356 0.964548 -59.672580 -4.751197 -7.444997 9.568196 -29.211058 -0.991245 0.000000 0.000000 0.000000 25.255298 -4.679040 -2.942941 60.980115 -1.186580 -9.315675 2.452921 36.972699 3.408773 0.000000 0.000000 0.000000 
